<?xml version="1.0" encoding="UTF-8"?>
<svg width="242px" height="78px" viewBox="0 0 242 78" version="1.1" xmlns="http://www.w3.org/2000/svg" xmlns:xlink="http://www.w3.org/1999/xlink">
    <title>Group</title>
    <g id="Page-1" stroke="none" stroke-width="1" fill="none" fill-rule="evenodd">
        <g id="HLC-mockups" transform="translate(-2431.000000, -87.000000)" fill="#D85A37">
            <g id="Group-387" transform="translate(0.000000, 24.000000)">
                <g id="Group" transform="translate(2431.985271, 63.823948)">
                    <path d="M49.7247293,47.9310524 C47.7547293,47.9310524 44.1747293,47.6000524 44.1747293,40.9820524 C44.1747293,36.3120524 45.8147293,33.8830524 50.2147293,32.6930524 C51.8947293,32.2400524 53.9347293,32.2380524 55.5847293,32.4530524 L55.7047293,32.5870524 L55.7047293,39.4970524 C55.6247293,42.1990524 56.0747293,47.9310524 49.7247293,47.9310524 Z M63.9447293,49.1380524 C61.3047293,49.1380524 61.4247293,47.3710524 61.4247293,42.7590524 L61.4247293,24.2860524 C61.4247293,18.0310524 56.2047293,12.9600524 49.7747293,12.9600524 C44.2547293,12.9600524 39.6347293,16.6960524 38.4347293,21.7090524 C38.3147293,22.1380524 38.2747293,22.6030524 38.3547293,23.0870524 C38.5947293,24.4610524 39.7347293,25.5290524 41.1247293,25.6600524 C42.9847293,25.8350524 44.5447293,24.3790524 44.5447293,22.5580524 C44.5447293,21.1010524 43.5447293,19.8790524 42.1947293,19.5370524 L42.1147293,19.3360524 C43.6147293,17.0010524 46.1947293,15.8550524 49.0147293,15.8550524 C54.4447293,15.8550524 55.7047293,18.6080524 55.7047293,24.2860524 L55.7047293,29.6930524 L55.5447293,29.8240524 C53.9947293,29.5480524 51.2047293,29.3000524 47.8847293,30.1340524 C42.5347293,31.4780524 38.3047293,35.8760524 38.3047293,41.1390524 C38.3047293,48.2910524 43.6747293,50.9670524 49.1847293,50.9670524 C51.6947293,50.9670524 54.5447293,49.9180524 56.4247293,47.9490524 L56.6347293,47.9740524 C57.7947293,49.9300524 59.9247293,51.2420524 62.3747293,51.2420524 L64.1447293,51.2420524 C64.3647293,51.2420524 64.5447293,51.0620524 64.5447293,50.8400524 L64.5447293,49.5410524 C64.5447293,49.3190524 64.3647293,49.1380524 64.1447293,49.1380524 L63.9447293,49.1380524 L63.9447293,49.1380524 Z" id="Fill-49"></path>
                    <path d="M129.774729,51.8570524 L129.774729,13.9340524 L129.914729,13.8000524 L132.674729,13.8000524 C132.894729,13.8000524 133.074729,13.6190524 133.074729,13.3960524 L133.074729,11.7390524 C133.074729,11.5160524 132.894729,11.3360524 132.674729,11.3360524 L120.754729,11.3360524 C120.534729,11.3360524 120.354729,11.5160524 120.354729,11.7390524 L120.354729,13.3960524 C120.354729,13.6190524 120.534729,13.8000524 120.754729,13.8000524 L123.474729,13.8000524 L123.604729,13.9340524 L123.604729,40.4220524 L123.544729,40.5380524 C122.024729,41.4230524 119.774729,41.9520524 118.204729,41.6790524 C115.444729,41.2000524 113.994729,40.1980524 113.994729,32.0660524 C113.994729,29.5380524 113.994729,24.4110524 113.994729,21.2850524 C113.994729,17.6010524 111.754729,10.9180524 105.304729,10.9180524 C96.3647293,10.9180524 94.6047293,18.0300524 94.8447293,22.2600524 L94.8447293,22.3090524 C94.8447293,24.6100524 96.7847293,26.4590524 99.1147293,26.3140524 C101.114729,26.1900524 102.744729,24.5630524 102.864729,22.5650524 C103.014729,20.2320524 101.164729,18.2960524 98.8647293,18.2960524 C98.5347293,18.2960524 98.2247293,18.3340524 97.9247293,18.4050524 C97.8247293,18.4290524 97.7347293,18.3350524 97.7647293,18.2380524 C98.5147293,15.7560524 100.134729,13.9070524 102.894729,13.9070524 C106.714729,13.9070524 107.824729,16.2800524 107.824729,21.9430524 C107.824729,28.1960524 107.824729,29.4940524 107.824729,32.2920524 C107.824729,37.6910524 109.504729,44.5100524 117.584729,44.5100524 C120.144729,44.5100524 122.094729,43.9650524 123.424729,43.3990524 C123.514729,43.3620524 123.604729,43.4260524 123.604729,43.5230524 L123.604729,51.8570524 C123.604729,60.5240524 124.004729,73.3840524 113.464729,73.3840524 C110.604729,73.3840524 108.234729,71.7300524 107.314729,69.0930524 L107.424729,68.9180524 C109.334729,68.5270524 110.744729,66.7830524 110.614729,64.7330524 C110.494729,62.7530524 108.904729,61.1350524 106.924729,60.9850524 C105.164729,60.8510524 103.614729,61.8630524 102.944729,63.3530524 L102.944729,63.3550524 L102.914729,63.4280524 L102.834729,63.6320524 C102.714729,63.9710524 102.634729,64.3320524 102.614729,64.7060524 C102.204729,68.3370524 104.034729,76.2060524 113.994729,76.2060524 C128.404729,76.2060524 129.774729,63.7540524 129.774729,51.8570524" id="Fill-50"></path>
                    <path d="M164.634729,38.9500524 L164.634729,40.5770524 C164.634729,43.2680524 162.444729,45.4490524 159.754729,45.4490524 L142.934729,45.4490524 L142.794729,45.3150524 L142.794729,7.17205244 L142.934729,7.03705244 L145.934729,7.03705244 C146.154729,7.03705244 146.334729,6.85805244 146.334729,6.63505244 L146.334729,4.97805244 C146.334729,4.75505244 146.154729,4.57405244 145.934729,4.57405244 L134.014729,4.57405244 C133.794729,4.57405244 133.614729,4.75505244 133.614729,4.97805244 L133.614729,6.63505244 C133.614729,6.85805244 133.794729,7.03705244 134.014729,7.03705244 L137.024729,7.03705244 L137.154729,7.17205244 L137.154729,45.3150524 L137.024729,45.4490524 L134.014729,45.4490524 C133.794729,45.4490524 133.614729,45.6290524 133.614729,45.8520524 L133.614729,47.5090524 C133.614729,47.7320524 133.794729,47.9120524 134.014729,47.9120524 L166.774729,47.9120524 C167.004729,47.9120524 167.184729,47.7320524 167.184729,47.5090524 L167.184729,38.9500524 C167.184729,38.7280524 167.004729,38.5480524 166.774729,38.5480524 L165.034729,38.5480524 C164.814729,38.5480524 164.634729,38.7280524 164.634729,38.9500524" id="Fill-51"></path>
                    <path d="M73.0947293,13.8560524 C80.4847293,13.9300524 84.8447293,16.8380524 84.8447293,25.4680524 C84.8447293,35.7080524 78.4647293,36.5580524 73.2347293,36.6260524 L73.0947293,36.4920524 L73.0947293,13.8560524 Z M90.5247293,25.4580524 C90.5247293,12.4580524 78.0747293,11.4490524 73.1147293,11.4490524 L64.3147293,11.4490524 C64.0947293,11.4490524 63.9147293,11.6310524 63.9147293,11.8530524 L63.9147293,13.5100524 C63.9147293,13.7330524 64.0947293,13.9130524 64.3147293,13.9130524 L67.3147293,13.9130524 L67.4547293,14.0480524 L67.4547293,65.9320524 L67.3147293,66.0670524 L64.3147293,66.0670524 C64.0947293,66.0670524 63.9147293,66.2470524 63.9147293,66.4690524 L63.9147293,68.1270524 C63.9147293,68.3490524 64.0947293,68.5300524 64.3147293,68.5300524 L76.2347293,68.5300524 C76.4547293,68.5300524 76.6347293,68.3490524 76.6347293,68.1270524 L76.6347293,66.4690524 C76.6347293,66.2470524 76.4547293,66.0670524 76.2347293,66.0670524 L73.2347293,66.0670524 L73.0947293,65.9320524 L73.0947293,39.9150524 L73.2247293,39.7810524 C80.0947293,39.6220524 90.5247293,37.7780524 90.5247293,25.4580524 L90.5247293,25.4580524 Z" id="Fill-52"></path>
                    <path d="M104.874729,48.1880524 C104.874729,53.0010524 103.394729,56.3900524 96.0847293,56.8000524 L95.9447293,56.6660524 L95.9447293,40.0090524 L96.0847293,39.8750524 C102.644729,40.2320524 104.874729,42.9300524 104.874729,48.1880524 Z M109.654729,48.1790524 C109.654729,37.9910524 100.544729,37.3960524 95.9447293,37.3620524 L95.9447293,37.3590524 L87.9047293,37.3590524 C87.6847293,37.3590524 87.5047293,37.5400524 87.5047293,37.7620524 L87.5047293,39.4200524 C87.5047293,39.6420524 87.6847293,39.8220524 87.9047293,39.8220524 L90.1647293,39.8220524 L90.3047293,39.9570524 L90.3047293,73.1430524 L90.1647293,73.2770524 L87.8447293,73.2770524 C87.6247293,73.2770524 87.4447293,73.4580524 87.4447293,73.6800524 L87.4447293,75.3380524 C87.4447293,75.5600524 87.6247293,75.7400524 87.8447293,75.7400524 L98.4047293,75.7400524 C98.6247293,75.7400524 98.8047293,75.5600524 98.8047293,75.3380524 L98.8047293,73.6800524 C98.8047293,73.4580524 98.6247293,73.2770524 98.4047293,73.2770524 L96.0847293,73.2770524 L95.9447293,73.1430524 L95.9447293,59.5130524 L96.0747293,59.3790524 C101.804729,59.1790524 109.654729,57.9700524 109.654729,48.1790524 L109.654729,48.1790524 Z" id="Fill-53"></path>
                    <path d="M164.084729,22.8800524 L168.164729,10.3590524 C168.204729,10.2320524 168.394729,10.2370524 168.424729,10.3660524 L171.684729,22.8880524 L171.554729,23.0560524 L164.204729,23.0560524 C164.114729,23.0560524 164.054729,22.9670524 164.084729,22.8800524 Z M185.224729,39.1710524 L181.734729,39.1710524 L181.604729,39.0690524 L171.864729,0.304052443 C171.824729,0.123052443 171.654729,-0.00294755749 171.464729,2.34479103e-13 L169.214729,0.0320524425 C169.044729,0.0350524425 168.894729,0.147052443 168.834729,0.311052443 L167.314729,5.01005244 L167.134729,5.42405244 L167.154729,5.49205244 L158.934729,30.8160524 C158.344729,32.5700524 157.884729,34.0270524 157.464729,35.2190524 C156.354729,38.3780524 156.004729,39.9850524 153.164729,40.0640524 C152.234729,40.0900524 151.554729,39.5980524 151.124729,38.8500524 C151.074729,38.7620524 151.134729,38.6520524 151.234729,38.6490524 C153.654729,38.5750524 154.294729,36.4660524 154.184729,35.2500524 C154.044729,33.6790524 152.714729,32.4440524 151.134729,32.4190524 C150.124729,32.4020524 149.224729,32.8650524 148.644729,33.5920524 L148.644729,33.5910524 C146.974729,35.4210524 147.394729,42.6760524 153.234729,42.5140524 C155.584729,42.4490524 157.874729,41.7950524 159.344729,37.5190524 C159.724729,36.4130524 160.524729,33.8350524 161.174729,31.7760524 L163.184729,25.6130524 L163.314729,25.5200524 L172.274729,25.5200524 L172.404729,25.6200524 L175.894729,39.0030524 L175.764729,39.1710524 L172.644729,39.1710524 C172.414729,39.1710524 172.234729,39.3510524 172.234729,39.5740524 L172.234729,41.2310524 C172.234729,41.4540524 172.414729,41.6340524 172.644729,41.6340524 L185.224729,41.6340524 C185.444729,41.6340524 185.624729,41.4540524 185.624729,41.2310524 L185.624729,39.5740524 C185.624729,39.3510524 185.444729,39.1710524 185.224729,39.1710524 L185.224729,39.1710524 Z" id="Fill-54"></path>
                    <path d="M38.5847293,13.5150524 L38.5847293,11.8580524 C38.5847293,11.6350524 38.4047293,11.4550524 38.1847293,11.4550524 L26.2647293,11.4550524 C26.0447293,11.4550524 25.8647293,11.6350524 25.8647293,11.8580524 L25.8647293,13.5150524 C25.8647293,13.7380524 26.0447293,13.9180524 26.2647293,13.9180524 L29.2647293,13.9180524 L29.4047293,14.0520524 L29.4047293,31.3220524 L29.3147293,31.4500524 C25.6147293,32.6970524 20.5647293,33.0530524 15.5747293,31.9120524 L15.4747293,31.7800524 L15.4747293,14.0520524 L15.6047293,13.9180524 L18.6047293,13.9180524 C18.8247293,13.9180524 19.0047293,13.7380524 19.0047293,13.5150524 L19.0047293,11.8580524 C19.0047293,11.6350524 18.8247293,11.4550524 18.6047293,11.4550524 L6.68472926,11.4550524 C6.46472926,11.4550524 6.28472926,11.6350524 6.28472926,11.8580524 L6.28472926,13.5150524 C6.28472926,13.7380524 6.46472926,13.9180524 6.68472926,13.9180524 L9.69472926,13.9180524 L9.82472926,14.0520524 L9.82472926,29.6170524 C9.82472926,29.7180524 9.72472926,29.7840524 9.63472926,29.7370524 C7.37472926,28.5520524 5.26472926,26.9620524 3.46472926,24.8980524 C3.32472926,24.7330524 3.07472926,24.7080524 2.90472926,24.8460524 C2.31472926,25.3330524 1.19472926,26.1290524 0.184729255,26.7930524 C-0.185270745,27.0350524 0.0447292553,27.6030524 0.484729255,27.5270524 C1.19472926,27.4020524 2.02472926,27.1770524 2.80472926,26.8160524 L2.95472926,26.8530524 C4.89472926,29.2450524 7.14472926,31.3180524 9.76472926,32.9160524 L9.82472926,33.0290524 L9.82472926,49.7420524 L9.69472926,49.8760524 L6.68472926,49.8760524 C6.46472926,49.8760524 6.28472926,50.0570524 6.28472926,50.2790524 L6.28472926,51.9370524 C6.28472926,52.1590524 6.46472926,52.3400524 6.68472926,52.3400524 L18.6047293,52.3400524 C18.8247293,52.3400524 19.0047293,52.1590524 19.0047293,51.9370524 L19.0047293,50.2790524 C19.0047293,50.0570524 18.8247293,49.8760524 18.6047293,49.8760524 L15.6047293,49.8760524 L15.4747293,49.7420524 L15.4747293,35.5910524 L15.6447293,35.4620524 C19.5047293,36.5370524 24.0047293,36.7390524 29.2447293,35.7830524 L29.4047293,35.9150524 L29.4047293,55.4150524 L29.2647293,55.5500524 L26.2647293,55.5500524 C26.0447293,55.5500524 25.8647293,55.7300524 25.8647293,55.9520524 L25.8647293,57.6100524 C25.8647293,57.8320524 26.0447293,58.0130524 26.2647293,58.0130524 L38.1847293,58.0130524 C38.4047293,58.0130524 38.5847293,57.8320524 38.5847293,57.6100524 L38.5847293,55.9520524 C38.5847293,55.7300524 38.4047293,55.5500524 38.1847293,55.5500524 L35.1847293,55.5500524 L35.0447293,55.4150524 L35.0447293,14.0520524 L35.1847293,13.9180524 L38.1847293,13.9180524 C38.4047293,13.9180524 38.5847293,13.7380524 38.5847293,13.5150524" id="Fill-55"></path>
                    <path d="M211.104729,28.8000524 C211.104729,19.8850524 206.274729,15.9840524 202.254729,15.9840524 C198.774729,15.9840524 196.864729,17.0110524 194.154729,18.9520524 L194.154729,16.9250524 C194.154729,16.7020524 193.974729,16.5220524 193.754729,16.5220524 L185.374729,16.5220524 C185.154729,16.5220524 184.974729,16.7020524 184.974729,16.9250524 L184.974729,18.5820524 C184.974729,18.8050524 185.154729,18.9860524 185.374729,18.9860524 L188.384729,18.9860524 L188.514729,19.1200524 L188.514729,45.3560524 L188.384729,45.4900524 L185.374729,45.4900524 C185.154729,45.4900524 184.974729,45.6710524 184.974729,45.8940524 L184.974729,47.5510524 C184.974729,47.7740524 185.154729,47.9540524 185.374729,47.9540524 L197.294729,47.9540524 C197.514729,47.9540524 197.694729,47.7740524 197.694729,47.5510524 L197.694729,45.8940524 C197.694729,45.6710524 197.514729,45.4900524 197.294729,45.4900524 L194.294729,45.4900524 L194.154729,45.3560524 L194.154729,22.1580524 L194.204729,22.0580524 C196.054729,20.4100524 197.714729,19.1220524 201.114729,19.1220524 C204.114729,19.1220524 205.424729,20.7980524 205.424729,28.8000524 L205.424729,45.4000524 L205.284729,45.5340524 L201.834729,45.5340524 C201.604729,45.5340524 201.424729,45.7150524 201.424729,45.9380524 L201.424729,47.5950524 C201.424729,47.8180524 201.604729,47.9980524 201.834729,47.9980524 L215.094729,47.9980524 C215.314729,47.9980524 215.494729,47.8180524 215.494729,47.5950524 L215.494729,45.9380524 C215.494729,45.7150524 215.314729,45.5340524 215.094729,45.5340524 L211.244729,45.5340524 L211.104729,45.4000524 L211.104729,28.8000524" id="Fill-56"></path>
                    <path d="M226.354729,45.5340524 L223.184729,45.5340524 L223.184729,24.4090524 L226.354729,24.4090524 C231.874729,24.4090524 235.104729,29.3620524 235.104729,35.0400524 C235.104729,41.4470524 231.974729,45.5340524 226.354729,45.5340524 Z M226.354729,21.9460524 L215.164729,21.9460524 C214.944729,21.9460524 214.764729,22.1270524 214.764729,22.3490524 L214.764729,24.0070524 C214.764729,24.2290524 214.944729,24.4090524 215.164729,24.4090524 L217.404729,24.4090524 L217.534729,24.5440524 L217.534729,45.4000524 L217.404729,45.5340524 L215.164729,45.5340524 C214.944729,45.5340524 214.764729,45.7150524 214.764729,45.9380524 L214.764729,47.5950524 C214.764729,47.8180524 214.944729,47.9980524 215.164729,47.9980524 L226.354729,47.9980524 C236.934729,47.9980524 240.794729,42.0530524 240.794729,35.0400524 C240.794729,27.1910524 235.034729,21.9460524 226.354729,21.9460524 L226.354729,21.9460524 Z" id="Fill-57"></path>
                    <path d="M143.994729,55.1910524 C143.914729,55.4080524 143.674729,55.5120524 143.464729,55.4170524 C143.274729,55.3320524 143.074729,55.2580524 142.854729,55.1960524 C142.484729,55.0910524 142.134729,55.0380524 141.784729,55.0380524 C141.124729,55.0380524 140.604729,55.2350524 140.234729,55.6290524 C139.854729,56.0230524 139.664729,56.5630524 139.664729,57.2500524 C139.664729,57.9460524 139.844729,58.4960524 140.204729,58.8990524 C140.564729,59.3020524 141.084729,59.5040524 141.784729,59.5040524 C142.184729,59.5040524 142.564729,59.4480524 142.924729,59.3390524 C143.134729,59.2750524 143.334729,59.1950524 143.534729,59.1000524 C143.764729,58.9940524 144.034729,59.1190524 144.094729,59.3610524 L144.474729,60.8660524 C144.524729,61.0600524 144.424729,61.2620524 144.234729,61.3330524 C144.154729,61.3650524 144.064729,61.3970524 143.964729,61.4270524 C143.734729,61.5010524 143.494729,61.5620524 143.234729,61.6130524 C142.974729,61.6630524 142.704729,61.7020524 142.434729,61.7290524 C142.164729,61.7570524 141.904729,61.7710524 141.644729,61.7710524 C140.934729,61.7710524 140.284729,61.6760524 139.704729,61.4890524 C139.124729,61.3010524 138.624729,61.0220524 138.214729,60.6510524 C137.814729,60.2790524 137.494729,59.8150524 137.274729,59.2560524 C137.054729,58.6970524 136.944729,58.0470524 136.944729,57.3050524 C136.944729,56.6090524 137.054729,55.9820524 137.274729,55.4230524 C137.494729,54.8640524 137.814729,54.3880524 138.224729,53.9940524 C138.634729,53.6000524 139.144729,53.2980524 139.734729,53.0870524 C140.334729,52.8770524 141.004729,52.7710524 141.754729,52.7710524 C142.304729,52.7710524 142.824729,52.8260524 143.304729,52.9360524 C143.654729,53.0140524 143.984729,53.1120524 144.294729,53.2280524 C144.494729,53.3040524 144.594729,53.5310524 144.524729,53.7350524 L143.994729,55.1910524" id="Fill-58"></path>
                    <path d="M154.844729,57.0850524 C155.264729,57.0400524 155.554729,56.9320524 155.734729,56.7620524 C155.914729,56.5930524 156.004729,56.3340524 156.004729,55.9860524 C156.004729,55.6660524 155.904729,55.4270524 155.704729,55.2720524 C155.504729,55.1160524 155.154729,55.0380524 154.654729,55.0380524 L154.044729,55.0380524 L153.914729,55.1710524 L153.914729,56.9650524 L154.054729,57.0970524 L154.844729,57.0850524 Z M153.574729,61.5650524 L151.664729,61.5650524 C151.444729,61.5650524 151.264729,61.3860524 151.264729,61.1670524 L151.264729,53.3750524 C151.264729,53.1550524 151.444729,52.9770524 151.664729,52.9770524 L155.154729,52.9770524 C156.354729,52.9770524 157.264729,53.2310524 157.874729,53.7390524 C158.494729,54.2480524 158.804729,54.9330524 158.804729,55.7940524 C158.804729,56.3430524 158.674729,56.8360524 158.404729,57.2710524 C158.154729,57.6700524 157.774729,57.9820524 157.274729,58.2080524 L157.214729,58.4000524 L158.864729,60.9510524 C159.034729,61.2160524 158.844729,61.5650524 158.534729,61.5650524 L156.494729,61.5650524 C156.354729,61.5650524 156.224729,61.4900524 156.154729,61.3690524 L154.764729,59.0260524 L154.644729,58.9620524 L154.094729,59.0110524 L153.974729,59.1440524 L153.974729,61.1670524 C153.974729,61.3860524 153.794729,61.5650524 153.574729,61.5650524 L153.574729,61.5650524 Z" id="Fill-59"></path>
                    <path d="M165.744729,61.1670524 L165.744729,53.3750524 C165.744729,53.1550524 165.924729,52.9770524 166.144729,52.9770524 L172.034729,52.9770524 C172.254729,52.9770524 172.434729,53.1550524 172.434729,53.3750524 L172.434729,54.6960524 C172.434729,54.9150524 172.254729,55.0930524 172.034729,55.0930524 L168.504729,55.0930524 L168.364729,55.2260524 L168.364729,56.0600524 L168.504729,56.1920524 L171.184729,56.1920524 C171.404729,56.1920524 171.584729,56.3700524 171.584729,56.5900524 L171.584729,57.9110524 C171.584729,58.1300524 171.404729,58.3080524 171.184729,58.3080524 L168.504729,58.3080524 L168.364729,58.4410524 L168.364729,59.3160524 L168.504729,59.4480524 L172.034729,59.4480524 C172.254729,59.4480524 172.434729,59.6270524 172.434729,59.8460524 L172.434729,61.1670524 C172.434729,61.3860524 172.254729,61.5650524 172.034729,61.5650524 L166.144729,61.5650524 C165.924729,61.5650524 165.744729,61.3860524 165.744729,61.1670524" id="Fill-60"></path>
                    <path d="M183.054729,55.3210524 L182.274729,57.7510524 L182.404729,57.9240524 L183.904729,57.9240524 L184.034729,57.7530524 L183.304729,55.3230524 C183.264729,55.1980524 183.094729,55.1970524 183.054729,55.3210524 Z M187.274729,61.5650524 L185.434729,61.5650524 C185.264729,61.5650524 185.104729,61.4550524 185.054729,61.2930524 L184.644729,60.0480524 L184.514729,59.9570524 L181.794729,59.9570524 L181.664729,60.0500524 L181.274729,61.2870524 C181.224729,61.4520524 181.074729,61.5650524 180.894729,61.5650524 L179.084729,61.5650524 C178.804729,61.5650524 178.614729,61.2960524 178.704729,61.0380524 L181.384729,53.2450524 C181.444729,53.0850524 181.594729,52.9770524 181.764729,52.9770524 L184.644729,52.9770524 C184.814729,52.9770524 184.964729,53.0860524 185.014729,53.2470524 L187.644729,61.0400524 C187.734729,61.2980524 187.544729,61.5650524 187.274729,61.5650524 L187.274729,61.5650524 Z" id="Fill-61"></path>
                    <path d="M197.934729,55.3210524 L197.934729,61.1670524 C197.934729,61.3860524 197.754729,61.5650524 197.534729,61.5650524 L195.624729,61.5650524 C195.404729,61.5650524 195.234729,61.3860524 195.234729,61.1670524 L195.234729,55.3210524 L195.094729,55.1890524 L193.034729,55.1890524 C192.814729,55.1890524 192.634729,55.0110524 192.634729,54.7920524 L192.634729,53.3750524 C192.634729,53.1550524 192.814729,52.9770524 193.034729,52.9770524 L200.134729,52.9770524 C200.354729,52.9770524 200.534729,53.1550524 200.534729,53.3750524 L200.534729,54.7920524 C200.534729,55.0110524 200.354729,55.1890524 200.134729,55.1890524 L198.064729,55.1890524 L197.934729,55.3210524" id="Fill-62"></path>
                    <path d="M207.174729,61.1670524 L207.174729,53.3750524 C207.174729,53.1550524 207.344729,52.9770524 207.564729,52.9770524 L209.474729,52.9770524 C209.694729,52.9770524 209.874729,53.1550524 209.874729,53.3750524 L209.874729,61.1670524 C209.874729,61.3860524 209.694729,61.5650524 209.474729,61.5650524 L207.564729,61.5650524 C207.344729,61.5650524 207.174729,61.3860524 207.174729,61.1670524" id="Fill-63"></path>
                    <path d="M222.204729,61.5650524 L219.344729,61.5650524 C219.174729,61.5650524 219.014729,61.4530524 218.964729,61.2890524 L216.444729,53.4970524 C216.364729,53.2400524 216.554729,52.9770524 216.824729,52.9770524 L218.784729,52.9770524 C218.954729,52.9770524 219.114729,53.0950524 219.164729,53.2660524 L220.654729,58.5450524 C220.694729,58.6740524 220.874729,58.6740524 220.914729,58.5450524 L222.404729,53.2660524 C222.454729,53.0950524 222.614729,52.9770524 222.794729,52.9770524 L224.754729,52.9770524 C225.024729,52.9770524 225.214729,53.2410524 225.134729,53.4980524 L222.574729,61.2910524 C222.524729,61.4540524 222.374729,61.5650524 222.204729,61.5650524" id="Fill-64"></path>
                    <path d="M231.694729,61.1670524 L231.694729,53.3750524 C231.694729,53.1550524 231.874729,52.9770524 232.094729,52.9770524 L237.984729,52.9770524 C238.204729,52.9770524 238.384729,53.1550524 238.384729,53.3750524 L238.384729,54.6960524 C238.384729,54.9150524 238.204729,55.0930524 237.984729,55.0930524 L234.454729,55.0930524 L234.314729,55.2260524 L234.314729,56.0600524 L234.454729,56.1920524 L237.134729,56.1920524 C237.354729,56.1920524 237.534729,56.3700524 237.534729,56.5900524 L237.534729,57.9110524 C237.534729,58.1300524 237.354729,58.3080524 237.134729,58.3080524 L234.454729,58.3080524 L234.314729,58.4410524 L234.314729,59.3160524 L234.454729,59.4480524 L237.984729,59.4480524 C238.204729,59.4480524 238.384729,59.6270524 238.384729,59.8460524 L238.384729,61.1670524 C238.384729,61.3860524 238.204729,61.5650524 237.984729,61.5650524 L232.094729,61.5650524 C231.874729,61.5650524 231.694729,61.3860524 231.694729,61.1670524" id="Fill-65"></path>
                </g>
            </g>
        </g>
    </g>
</svg>